<svg id="Component_60_1" data-name="Component 60 – 1" xmlns="http://www.w3.org/2000/svg" width="273.617" height="55.632" viewBox="0 0 273.617 55.632">
  <g id="Group_1592" data-name="Group 1592">
    <path id="Path_605" data-name="Path 605" d="M27.816,0H245.8a27.816,27.816,0,1,1,0,55.632H27.816A27.816,27.816,0,0,1,27.816,0Z" fill="#fff"/>
    <text id="MEETUP" transform="translate(148.586 35.489)" fill="#1b1b2a" font-size="22" font-family="Poppins-Medium, Poppins" font-weight="500" letter-spacing="0.02em"><tspan x="-42" y="0">MEETUP</tspan></text>
  </g>
  <path id="meetup-2" data-name="meetup" d="M18.3,5.339c-1.844.11-4.3-3.386-8.446-1.724-3.968,1.591-4.287,4.594-8.6,18.65C.244,25.552-.878,28.028,1.1,30.57a5.646,5.646,0,0,0,7.037,1.41c2.13-1.068,3.8-8.009,8.446-19.277.725-1.455,3.536-1.292,3.128,1.566,0,.936-4.38,11.388-4.38,11.911-.527,3.692,4.32,4.056,5.787.627.156-.156.782-1.566,2.034-4.074,6.141-12.307,3.827-7.513,5.631-11.127.625-.783,1.251-1.254,1.721-1.254.782,0,1.251.627,1.094,1.724,0,1.26-4.628,9.524-5.943,13.477a7.271,7.271,0,0,0,3.91,7.835c.886.591,6.272,1.594,7.977.313,1.777-.593,1.278-3.16-.156-3.447-1.56-.782-2.327-.118-4.38-.94-4.514-1.808,5.6-16.755,5.007-21.468-.469-2.978-2.034-4.388-5.162-4.544-1.863,0-2.064.848-2.97.748S27.09,1.8,24.4,1.834s-4.651,3.418-6.1,3.505Z" transform="translate(37.458 9.759)" fill="#d81b60"/>
</svg>
