<svg xmlns="http://www.w3.org/2000/svg" width="196.221" height="67.404" viewBox="0 0 196.221 67.404">
  <g id="nodeco" data-name="logo nodeco" transform="translate(-17.1 -7.7)">
    <g id="Group_1530" data-name="Group 1530" transform="translate(17.1 65.229)">
      <g id="Group_1514" data-name="Group 1514" transform="translate(0 0.166)">
        <path id="Path_634" data-name="Path 634" d="M17.7,112.3h1.11l3.551,7.767h0V112.3h.832v8.932h-1.11l-3.551-7.767h0v7.767H17.7Z" transform="translate(-17.367 -111.967)" fill="#ffffff"/>
        <path id="Path_635" data-name="Path 635" d="M23.313,121.242H21.649L18.6,114.585v6.657H17.1V111.7h1.664l3.051,6.657V111.7h1.5Zm-1.22-.61h.61v-8.266h-.166v7.767h-.555l-.111-.166-3.5-7.6h-.61v8.266h.166v-7.767h.555l.111.166Z" transform="translate(-17.1 -111.7)" fill="#ffffff"/>
      </g>
      <g id="Group_1515" data-name="Group 1515" transform="translate(12.815)">
        <path id="Path_636" data-name="Path 636" d="M43.8,112c1.886,0,3,1.387,3,4.6s-1.054,4.6-3,4.6c-1.886,0-3-1.387-3-4.6C40.8,113.442,41.91,112,43.8,112Zm0,8.543c1.331,0,2.164-1.054,2.164-3.939s-.832-3.939-2.164-3.939-2.164,1.054-2.164,3.939S42.464,120.543,43.8,120.543Z" transform="translate(-40.467 -111.667)" fill="#ffffff"/>
        <path id="Path_637" data-name="Path 637" d="M43.529,121.275c-2.219,0-3.329-1.664-3.329-4.937s1.11-4.937,3.329-4.937,3.329,1.664,3.329,4.937S45.748,121.275,43.529,121.275Zm0-9.209c-1.775,0-2.663,1.387-2.663,4.272s.888,4.272,2.663,4.272,2.663-1.387,2.663-4.272S45.3,112.066,43.529,112.066Zm0,8.543c-1.664,0-2.5-1.387-2.5-4.272,0-2.829.832-4.272,2.5-4.272s2.5,1.387,2.5,4.272C45.97,119.222,45.193,120.609,43.529,120.609Zm0-7.878c-.777,0-1.831.388-1.831,3.606,0,3.273,1.054,3.606,1.831,3.606s1.831-.388,1.831-3.606S44.305,112.731,43.529,112.731Z" transform="translate(-40.2 -111.4)" fill="#ffffff"/>
      </g>
      <g id="Group_1516" data-name="Group 1516" transform="translate(26.074 0.166)">
        <path id="Path_638" data-name="Path 638" d="M64.7,112.3h2.275c2.718,0,3.384,1.553,3.384,4.438s-.666,4.438-3.384,4.438H64.7Zm.832,8.266h1.387c1.831,0,2.607-.888,2.607-3.772,0-2.94-.777-3.772-2.607-3.772H65.532Z" transform="translate(-64.367 -111.967)" fill="#ffffff"/>
        <path id="Path_639" data-name="Path 639" d="M66.652,121.242H64.1V111.7h2.552c3.107,0,3.717,1.886,3.717,4.771S69.759,121.242,66.652,121.242Zm-1.886-.61h1.942c2.275,0,3.051-1.054,3.051-4.161s-.777-4.161-3.051-4.161H64.766Zm1.831-.055H64.932v-8.211H66.6c2.108,0,2.94,1.165,2.94,4.105C69.537,119.467,68.7,120.576,66.6,120.576Zm-1-.61h1.054c1.5,0,2.275-.555,2.275-3.44,0-2.94-.777-3.5-2.275-3.5H65.6Z" transform="translate(-64.1 -111.7)" fill="#ffffff"/>
      </g>
      <g id="Group_1517" data-name="Group 1517" transform="translate(39 0.166)">
        <path id="Path_640" data-name="Path 640" d="M87.855,112.3h4.6v.666H88.688v3.273h3.551v.666H88.688v3.661h3.883v.666H87.8V112.3Z" transform="translate(-87.578 -111.967)" fill="#ffffff"/>
        <path id="Path_641" data-name="Path 641" d="M92.781,121.242H87.4V111.7h5.27v1.276H88.842v2.607h3.551v1.276H88.842v3h3.883v1.387Zm-4.771-.61h4.105v-.055H88.232V116.3h3.551v-.055H88.232v-3.883H92v-.055H88.01v8.322Z" transform="translate(-87.4 -111.7)" fill="#ffffff"/>
      </g>
      <g id="Group_1518" data-name="Group 1518" transform="translate(50.206 0.166)">
        <path id="Path_642" data-name="Path 642" d="M108.1,118.669h.832v.222c0,1.22.333,1.886,1.22,1.886s1.442-.388,1.442-1.775v-6.6h.832v6.657c0,1.553-.721,2.385-2.219,2.385-1.331,0-2.108-.666-2.108-2.385Z" transform="translate(-107.823 -112.012)" fill="#ffffff"/>
        <path id="Path_643" data-name="Path 643" d="M110.041,121.408c-1.609,0-2.441-.888-2.441-2.718v-.666h1.5v.5c0,1.387.444,1.553.888,1.553.61,0,1.11-.111,1.11-1.5V111.7h1.5v6.99C112.537,120.465,111.65,121.408,110.041,121.408Zm-1.831-2.774h0c0,1.886.888,2.108,1.775,2.108,1.276,0,1.886-.666,1.886-2.053v-6.38h-.166v6.269c0,1.442-.555,2.108-1.775,2.108-1.5,0-1.553-1.442-1.553-2.108h-.166Z" transform="translate(-107.6 -111.7)" fill="#ffffff"/>
      </g>
      <g id="Group_1519" data-name="Group 1519" transform="translate(61.468 0.111)">
        <path id="Path_644" data-name="Path 644" d="M133.038,114.352a1.552,1.552,0,0,0-1.664-1.775,1.622,1.622,0,0,0-1.775,1.609c0,2.663,4.549,1.22,4.549,4.327,0,1.72-1.11,2.607-2.829,2.607a2.393,2.393,0,0,1-2.718-2.663v-.277h.832v.333a1.706,1.706,0,0,0,1.831,1.886c1.165,0,2-.555,2-1.831,0-2.663-4.549-1.11-4.549-4.383a2.319,2.319,0,0,1,2.552-2.386c1.72,0,2.552.832,2.552,2.441h-.777Z" transform="translate(-128.212 -111.689)" fill="#ffffff"/>
        <path id="Path_645" data-name="Path 645" d="M130.951,121.364a2.719,2.719,0,0,1-3.051-2.94v-.555h1.5v.666a1.445,1.445,0,0,0,1.553,1.609c.777,0,1.664-.277,1.664-1.5,0-1-.721-1.276-1.886-1.609-1.165-.388-2.663-.832-2.663-2.774a2.626,2.626,0,0,1,2.885-2.663c1.886,0,2.885.943,2.885,2.774v.333h-1.442v-.333c0-1-.444-1.442-1.331-1.442a1.274,1.274,0,0,0-1.442,1.276c0,1,.721,1.276,1.886,1.664s2.607.832,2.607,2.663C134.113,120.254,132.948,121.364,130.951,121.364Zm-2.385-2.885a2.084,2.084,0,0,0,2.385,2.275c1.609,0,2.5-.832,2.5-2.275,0-1.387-1-1.72-2.164-2.108-1.11-.333-2.33-.721-2.33-2.219a1.931,1.931,0,0,1,2.108-1.886,1.81,1.81,0,0,1,2,1.775h.166c-.111-1.22-.777-1.831-2.219-1.831a2.017,2.017,0,0,0-2.275,2.053c0,1.5,1,1.775,2.219,2.164,1.11.333,2.33.721,2.33,2.219a2.048,2.048,0,0,1-2.33,2.108,2.026,2.026,0,0,1-2.164-2.219h-.222Z" transform="translate(-127.9 -111.6)" fill="#ffffff"/>
      </g>
      <g id="Group_1520" data-name="Group 1520" transform="translate(82.549 0.166)">
        <path id="Path_646" data-name="Path 646" d="M166.5,118.669h.832v.222c0,1.22.333,1.886,1.22,1.886S170,120.389,170,119v-6.6h.832v6.657c0,1.553-.721,2.385-2.219,2.385-1.331,0-2.108-.666-2.108-2.385Z" transform="translate(-166.167 -112.012)" fill="#ffffff"/>
        <path id="Path_647" data-name="Path 647" d="M168.341,121.408c-1.609,0-2.441-.888-2.441-2.718v-.666h1.5v.5c0,1.387.444,1.553.888,1.553.61,0,1.11-.111,1.11-1.5V111.7h1.5v6.99C170.893,120.465,170.005,121.408,168.341,121.408Zm-1.775-2.774h0c0,1.886.888,2.108,1.775,2.108,1.276,0,1.886-.666,1.886-2.053v-6.38h-.166v6.269c0,1.442-.555,2.108-1.775,2.108-1.5,0-1.553-1.442-1.553-2.108h-.166Z" transform="translate(-165.9 -111.7)" fill="#ffffff"/>
      </g>
      <g id="Group_1521" data-name="Group 1521" transform="translate(93.367 0.166)">
        <path id="Path_648" data-name="Path 648" d="M188.974,112.3h1.054l2.774,8.932h-.888l-.777-2.607h-3.273l-.777,2.607H186.2Zm2,5.659-1.442-4.993h0l-1.442,4.993Z" transform="translate(-185.756 -111.967)" fill="#ffffff"/>
        <path id="Path_649" data-name="Path 649" d="M192.889,121.242h-1.609l-.777-2.607H187.73l-.777,2.607H185.4l2.94-9.542h1.553Zm-1.11-.61H192l-2.607-8.266.111.222,1.553,5.437h-3.772l1.609-5.659h0l-2.552,8.266h.222l.777-2.607h3.772Zm-3.661-3.273h2.053l-1-3.551Z" transform="translate(-185.4 -111.7)" fill="#ffffff"/>
      </g>
      <g id="Group_1522" data-name="Group 1522" transform="translate(105.572 0.166)">
        <path id="Path_650" data-name="Path 650" d="M208.1,112.3h.888l2.053,8.044h0l2.053-8.044h.888l-2.441,8.932h-1.054Z" transform="translate(-207.712 -111.967)" fill="#ffffff"/>
        <path id="Path_651" data-name="Path 651" d="M211.561,121.242h-1.553L207.4,111.7h1.553l1.831,7.1,1.831-7.1h1.553Zm-1.054-.61h.555l2.275-8.266h-.222l-2.053,8.044h-.555l-.111-.222-2-7.822h-.222Z" transform="translate(-207.4 -111.7)" fill="#ffffff"/>
      </g>
      <g id="Group_1523" data-name="Group 1523" transform="translate(116.889 0.166)">
        <path id="Path_652" data-name="Path 652" d="M231.374,112.3h1.054l2.774,8.932h-.888l-.777-2.607h-3.273l-.777,2.607H228.6Zm2,5.659-1.442-4.993h0l-1.442,4.993Z" transform="translate(-228.156 -111.967)" fill="#ffffff"/>
        <path id="Path_653" data-name="Path 653" d="M235.234,121.242h-1.553l-.777-2.607H230.13l-.777,2.607H227.8l2.94-9.542h1.553Zm-1.054-.61h.222l-2.607-8.266.111.222,1.553,5.437h-3.772l1.609-5.659h0l-2.552,8.266h.222l.777-2.607h3.772Zm-3.661-3.273h2.053l-1-3.551Z" transform="translate(-227.8 -111.7)" fill="#ffffff"/>
      </g>
      <g id="Group_1524" data-name="Group 1524" transform="translate(129.816 0.111)">
        <path id="Path_654" data-name="Path 654" d="M256.138,114.352a1.552,1.552,0,0,0-1.664-1.775,1.622,1.622,0,0,0-1.775,1.609c0,2.663,4.549,1.22,4.549,4.327,0,1.72-1.11,2.607-2.829,2.607a2.393,2.393,0,0,1-2.718-2.663v-.277h.832v.333a1.706,1.706,0,0,0,1.831,1.886c1.165,0,2-.555,2-1.831,0-2.663-4.549-1.11-4.549-4.383a2.319,2.319,0,0,1,2.552-2.386c1.72,0,2.552.832,2.552,2.441h-.777Z" transform="translate(-251.367 -111.689)" fill="#ffffff"/>
        <path id="Path_655" data-name="Path 655" d="M254.151,121.364a2.719,2.719,0,0,1-3.051-2.94v-.555h1.5v.666a1.445,1.445,0,0,0,1.553,1.609c.777,0,1.664-.277,1.664-1.5,0-1-.721-1.276-1.886-1.609-1.165-.388-2.663-.832-2.663-2.774a2.626,2.626,0,0,1,2.885-2.663c1.886,0,2.885.943,2.885,2.774v.333h-1.5v-.333c0-1-.444-1.442-1.331-1.442a1.274,1.274,0,0,0-1.442,1.276c0,1,.721,1.276,1.886,1.664s2.607.832,2.607,2.663C257.313,120.254,256.148,121.364,254.151,121.364Zm-2.386-2.885a2.084,2.084,0,0,0,2.386,2.275c1.609,0,2.5-.832,2.5-2.275,0-1.387-1-1.72-2.164-2.108-1.11-.333-2.33-.721-2.33-2.219a1.931,1.931,0,0,1,2.108-1.886,1.81,1.81,0,0,1,2,1.775h.166c-.111-1.22-.777-1.831-2.219-1.831a2.017,2.017,0,0,0-2.275,2.053c0,1.5,1,1.775,2.219,2.164,1.11.333,2.33.721,2.33,2.219a2.048,2.048,0,0,1-2.33,2.108,2.026,2.026,0,0,1-2.164-2.219h-.222Z" transform="translate(-251.1 -111.6)" fill="#ffffff"/>
      </g>
      <g id="Group_1525" data-name="Group 1525" transform="translate(142.242)">
        <path id="Path_656" data-name="Path 656" d="M279.87,118.047c-.111,2.053-1.11,3.162-2.774,3.162-1.886,0-3-1.387-3-4.6s1.054-4.6,3-4.6a2.5,2.5,0,0,1,2.663,2.774h-.832a1.813,1.813,0,0,0-1.831-2.053c-1.331,0-2.164,1.054-2.164,3.939s.832,3.939,2.164,3.939c1.165,0,1.831-.943,1.942-2.5h.832Z" transform="translate(-273.767 -111.667)" fill="#ffffff"/>
        <path id="Path_657" data-name="Path 657" d="M276.829,121.275c-2.219,0-3.329-1.664-3.329-4.937s1.11-4.937,3.329-4.937a2.812,2.812,0,0,1,3,3.051v.333h-1.5v-.277c0-1.11-.555-1.775-1.5-1.775-.777,0-1.831.388-1.831,3.606,0,3.273,1.054,3.606,1.831,3.606,1.276,0,1.553-1.387,1.609-2.219v-.277h1.5v.333C279.824,120,278.659,121.275,276.829,121.275Zm0-9.209c-1.775,0-2.663,1.387-2.663,4.272s.888,4.272,2.663,4.272c1.72,0,2.275-1.331,2.441-2.552H279.1c-.166,1.609-1,2.5-2.219,2.5-1.664,0-2.5-1.387-2.5-4.272,0-2.774.777-4.161,2.441-4.216a2.154,2.154,0,0,1,2.164,2.108h.166A2.086,2.086,0,0,0,276.829,112.066Z" transform="translate(-273.5 -111.4)" fill="#ffffff"/>
      </g>
      <g id="Group_1526" data-name="Group 1526" transform="translate(155.002 0.166)">
        <path id="Path_658" data-name="Path 658" d="M297.1,112.3h2.774a2.137,2.137,0,0,1,2.441,2.219,2.07,2.07,0,0,1-1.664,2.275h0c1.165.111,1.553.721,1.609,2.108v1a1.9,1.9,0,0,0,.388,1.331h-1a2.3,2.3,0,0,1-.222-1.276v-.777c-.055-1.553-.333-2.053-1.831-2.053h-1.609v4.05h-.832V112.3Zm.832,4.161h1.442c1.331,0,2.108-.555,2.108-1.775,0-1.11-.5-1.775-2-1.775h-1.553Z" transform="translate(-296.767 -111.967)" fill="#ffffff"/>
        <path id="Path_659" data-name="Path 659" d="M303.1,121.242h-1.886l-.111-.166a2.582,2.582,0,0,1-.277-1.387v-.721c-.055-1.5-.277-1.775-1.553-1.775H298v4.05h-1.5V111.7h3.107a2.411,2.411,0,0,1,2.718,2.552,2.545,2.545,0,0,1-1.054,2.219,2.253,2.253,0,0,1,.943,2.164v1a1.41,1.41,0,0,0,.333,1.11Zm-1.5-.61h.222a3.141,3.141,0,0,1-.166-1v-1c-.055-1.11-.333-1.553-.832-1.72.5.388.61,1.054.666,2v.721A2.606,2.606,0,0,0,301.6,120.632Zm-4.438,0h.166v-4.05h1.886a3.412,3.412,0,0,1,.777.055v-.222a4.311,4.311,0,0,1-.888.111h-1.775v-4.105h1.831c1.553,0,2.33.666,2.33,2.053a1.832,1.832,0,0,1-.777,1.609,1.8,1.8,0,0,0,.943-1.775c0-1.22-.721-1.942-2.108-1.942H297.11v8.266Zm.832-4.716h1.11c1.165,0,1.775-.444,1.775-1.442,0-.888-.277-1.442-1.664-1.442H298Z" transform="translate(-296.5 -111.7)" fill="#ffffff"/>
      </g>
      <g id="Group_1527" data-name="Group 1527" transform="translate(167.484 0.166)">
        <path id="Path_660" data-name="Path 660" d="M319.6,112.3h.832v8.932H319.6Z" transform="translate(-319.267 -111.967)" fill="#ffffff"/>
        <path id="Path_661" data-name="Path 661" d="M320.5,121.242H319V111.7h1.5Zm-.832-.61h.166v-8.266h-.166Z" transform="translate(-319 -111.7)" fill="#ffffff"/>
      </g>
      <g id="Group_1528" data-name="Group 1528" transform="translate(175.695 0.166)">
        <path id="Path_662" data-name="Path 662" d="M334.4,112.3h2.5a2.268,2.268,0,0,1,2.552,2.5c0,1.387-.721,2.5-2.829,2.5h-1.331v3.883h-.832V112.3Zm.888,4.383h1.442c1.11,0,2-.5,2-1.831s-.721-1.831-2-1.831h-1.442Z" transform="translate(-334.067 -111.967)" fill="#ffffff"/>
        <path id="Path_663" data-name="Path 663" d="M335.3,121.242h-1.5V111.7h2.829a2.564,2.564,0,0,1,2.885,2.829c0,1.775-1.165,2.829-3.162,2.829H335.3Zm-.832-.61h.166v-3.883h1.72c1.664,0,2.5-.721,2.5-2.219a1.992,1.992,0,0,0-2.219-2.219H334.41v8.322Zm1.942-3.939h-1.775v-4.327h1.775q2.33,0,2.33,2.164A2.036,2.036,0,0,1,336.407,116.693Zm-1.11-.61h1.11c1.11,0,1.664-.5,1.664-1.553,0-1.11-.5-1.553-1.664-1.553H335.3Z" transform="translate(-333.8 -111.7)" fill="#ffffff"/>
      </g>
      <g id="Group_1529" data-name="Group 1529" transform="translate(187.234 0.166)">
        <path id="Path_664" data-name="Path 664" d="M357.586,112.966H355.2V112.3h5.659v.666h-2.441v8.266h-.832Z" transform="translate(-354.867 -111.967)" fill="#ffffff"/>
        <path id="Path_665" data-name="Path 665" d="M358.483,121.242h-1.5v-8.266H354.6V111.7h6.324v1.276h-2.385v8.266Zm-.832-.61h.166v-8.266H360.2v-.055H355.21v.055H357.6v8.266Z" transform="translate(-354.6 -111.7)" fill="#ffffff"/>
      </g>
    </g>
    <g id="Group_1532" data-name="Group 1532" transform="translate(17.766 7.7)">
      <path id="Path_666" data-name="Path 666" d="M50.255,66.958H43.819V39.664c0-2.275-1.442-3.44-4.383-3.44H29.173a5.484,5.484,0,0,0-3.44.832q-1,.832-1,3.162v26.74H18.3V39.442c0-6.324,3.661-9.542,10.929-9.542H39.437c7.267,0,10.929,3.162,10.929,9.542V66.958Z" transform="translate(-18.3 -17.584)" fill="#ffffff"/>
      <path id="Path_667" data-name="Path 667" d="M117.309,57.849c0,6.1-3.44,9.1-10.319,9.1H94.9a10.471,10.471,0,0,1-7.212-2.607A8.278,8.278,0,0,1,84.8,57.849V38.6a8.194,8.194,0,0,1,2.5-6.158,8.5,8.5,0,0,1,6.158-2.385L107.6,30a10.265,10.265,0,0,1,7.046,2.441,7.922,7.922,0,0,1,2.718,6.213V57.849Zm-6.491-1.664V40.541q0-4.494-4.494-4.494H95.951q-4.66,0-4.66,4.494V55.908c0,3.329,1.553,4.937,4.66,4.937h10.374C109.321,60.9,110.819,59.292,110.819,56.185Z" transform="translate(-47.908 -17.629)" fill="#ffffff"/>
      <path id="Path_668" data-name="Path 668" d="M184.655,46.645a10.7,10.7,0,0,1-2.774,7.378A8.942,8.942,0,0,1,175,57.074H162.3a9.653,9.653,0,0,1-9.6-9.653V29.169a8.237,8.237,0,0,1,3-6.546,11.054,11.054,0,0,1,7.489-2.552h15.09V7.7h6.435V46.645Zm-6.435-.111V30.168c0-2.607-1.165-3.939-3.5-3.939H163.407a4.943,4.943,0,0,0-3.273.832,4.364,4.364,0,0,0-.943,3.218V47.31c0,2.386,1,3.551,3,3.551h11.761A4.014,4.014,0,0,0,177,49.64,3.9,3.9,0,0,0,178.219,46.534Z" transform="translate(-78.139 -7.7)" fill="#ffffff"/>
      <path id="Path_669" data-name="Path 669" d="M253.376,66.958H231.741a10.676,10.676,0,0,1-7.6-2.774,9.176,9.176,0,0,1-2.94-6.935V40.607c0-7.1,3.994-10.707,11.983-10.707h9.6a10.477,10.477,0,0,1,7.434,2.5,8.951,8.951,0,0,1,2.718,6.99v4.438l-25.3,11.206V56.7a6.391,6.391,0,0,0,1.22,3.329c.5.555,1.609.832,3.218.832h21.3ZM246.5,39.886v-1C246.5,37,245.166,36,242.559,36H232.018c-2.94,0-4.383,1.553-4.383,4.66v7.489Z" transform="translate(-108.638 -17.584)" fill="#ffffff"/>
      <path id="Path_670" data-name="Path 670" d="M332.065,44.023a21.677,21.677,0,0,1-7.046,16.31,25.1,25.1,0,0,1-34.174,0,21.677,21.677,0,0,1-7.046-16.31,21.677,21.677,0,0,1,7.046-16.31,25.1,25.1,0,0,1,34.174,0A21.877,21.877,0,0,1,332.065,44.023Z" transform="translate(-136.509 -13.622)" fill="#089d3b"/>
      <g id="Group_1531" data-name="Group 1531" transform="translate(152.006 18.973)">
        <path id="Path_671" data-name="Path 671" d="M308.832,65.7H299.29a7.294,7.294,0,0,1-5.1-1.72,5.519,5.519,0,0,1-1.886-4.327V47.891a6.271,6.271,0,0,1,1.5-4.383A5.446,5.446,0,0,1,298.07,41.9h10.707v3.939h-9.542a2.647,2.647,0,0,0-1.831.721,2.287,2.287,0,0,0-.888,1.886V59.431a2.057,2.057,0,0,0,.888,1.72,2.916,2.916,0,0,0,1.942.721h9.487Z" transform="translate(-292.3 -41.9)" fill="#f7f7f7"/>
        <path id="Path_672" data-name="Path 672" d="M345.47,60.33c0,3.939-2.219,5.881-6.657,5.881h-7.767a6.856,6.856,0,0,1-4.66-1.664A5.472,5.472,0,0,1,324.5,60.33V47.9a5.436,5.436,0,0,1,1.609-3.994,5.352,5.352,0,0,1,3.939-1.553l9.1-.055a6.567,6.567,0,0,1,4.549,1.553,5.179,5.179,0,0,1,1.775,3.994Zm-4.161-1.11V49.179a2.557,2.557,0,0,0-2.885-2.885h-6.713c-2,0-3,.943-3,2.885v9.875c0,2.108,1,3.218,3,3.218h6.713C340.311,62.272,341.309,61.273,341.309,59.22Z" transform="translate(-306.636 -42.078)" fill="#f7f7f7"/>
      </g>
      <path id="Path_673" data-name="Path 673" d="M248.721,47.075v-.444q0-1.331-1.831-1.331h-4.937c-1.387,0-2.053.721-2.053,2.219V51.07Z" transform="translate(-116.964 -24.441)" fill="#089d3b"/>
    </g>
  </g>
</svg>
